<?xml version="1.0" standalone="no"?>
<!DOCTYPE svg PUBLIC "-//W3C//DTD SVG 20010904//EN"
 "http://www.w3.org/TR/2001/REC-SVG-20010904/DTD/svg10.dtd">
<svg version="1.0" xmlns="http://www.w3.org/2000/svg"
 width="4300.000000pt" height="4300.000000pt" viewBox="0 0 4300.000000 4300.000000"
 preserveAspectRatio="xMidYMid meet">
<metadata>
Created by potrace 1.11, written by Peter Selinger 2001-2013
</metadata>
<g transform="translate(0.000000,4300.000000) scale(0.100000,-0.100000)"
fill="#000000" stroke="none">
<path d="M21556 41699 c-3 -34 -6 -134 -6 -223 0 -192 -15 -568 -30 -756 -59
-736 -227 -1268 -527 -1668 -116 -154 -308 -338 -460 -440 -62 -42 -235 -134
-241 -128 -1 2 24 54 57 117 282 537 517 1247 601 1814 19 132 61 507 57 512
-1 1 -102 -123 -224 -275 -122 -152 -279 -342 -348 -422 -667 -763 -1381
-1391 -2230 -1962 -146 -99 -221 -144 -223 -134 -2 8 4 65 13 127 67 487 265
947 577 1343 125 157 380 404 544 526 156 116 226 159 517 322 108 61 196 113
194 115 -6 5 -552 -25 -665 -37 -937 -100 -1862 -467 -2602 -1031 -209 -159
-313 -250 -526 -463 -296 -296 -470 -511 -937 -1158 -276 -383 -542 -704 -776
-938 l-145 -145 -9 45 c-10 53 -1 679 13 925 17 287 40 768 37 771 -4 4 -346
-370 -418 -456 -509 -614 -882 -1357 -1077 -2146 -28 -111 -62 -273 -77 -360
-14 -88 -29 -170 -32 -184 l-6 -25 -8 30 c-41 136 -167 629 -203 790 -25 110
-84 371 -131 580 -47 209 -89 388 -93 398 -13 32 -222 -713 -292 -1043 -93
-433 -154 -857 -192 -1335 -18 -217 -17 -1095 0 -1310 24 -289 114 -1045 137
-1142 3 -13 1 -23 -4 -23 -5 0 -121 68 -256 151 -159 96 -259 151 -279 153
-17 1 -41 7 -53 14 -20 11 -23 10 -23 -7 0 -11 -10 -39 -22 -62 -21 -40 -21
-47 -15 -348 19 -891 122 -1647 323 -2369 196 -704 463 -1335 859 -2035 l27
-48 -38 16 c-152 65 -368 138 -1098 371 -456 145 -831 265 -833 268 -2 2 -318
1684 -703 3737 -384 2054 -769 4108 -855 4564 l-155 830 -35 35 c-33 32 -40
35 -94 35 -63 -1 -78 -9 -200 -99 -90 -67 -366 -352 -455 -471 -233 -310 -386
-579 -509 -890 -224 -570 -350 -1219 -364 -1880 -10 -445 10 -630 136 -1286
107 -556 296 -1559 486 -2584 269 -1452 315 -1694 326 -1723 6 -15 22 -39 37
-55 49 -51 68 -51 436 -2 186 25 343 45 350 45 10 0 15 -32 18 -122 3 -68 8
-130 12 -138 4 -9 -11 -38 -38 -74 -88 -117 -154 -281 -181 -447 -24 -150 -16
-421 18 -627 2 -15 -141 -75 -443 -188 -260 -97 -348 -133 -420 -172 -250
-136 -433 -327 -522 -545 -53 -131 -69 -217 -75 -402 -6 -194 12 -333 71 -543
18 -64 74 -264 124 -444 51 -179 92 -332 92 -338 0 -7 -9 -23 -20 -37 -36 -46
-16 -109 37 -115 27 -3 28 -8 70 -178 73 -296 130 -571 188 -910 81 -470 136
-700 220 -906 l33 -84 -31 -1 -32 0 41 -19 c33 -14 48 -31 78 -84 156 -278
402 -470 786 -614 192 -72 360 -117 776 -207 25 -5 149 -313 399 -990 194
-523 205 -552 302 -765 169 -370 246 -508 353 -629 l78 -88 7 -84 c38 -452
290 -986 624 -1319 317 -317 818 -577 1375 -715 343 -85 817 -145 1143 -145
299 0 672 78 939 196 128 56 130 57 259 65 346 21 680 81 971 174 60 19 115
35 122 35 7 0 46 -52 88 -116 539 -830 846 -1766 1078 -3287 25 -161 55 -367
67 -459 15 -114 26 -168 34 -168 27 0 175 -54 260 -95 110 -53 207 -122 302
-216 l71 -71 42 72 c191 327 523 981 679 1340 232 533 446 1112 564 1528 12
46 25 83 28 83 2 1 53 -23 113 -52 92 -45 120 -54 177 -57 84 -5 124 8 173 55
50 49 70 91 159 333 41 113 110 295 152 405 410 1059 702 2208 845 3315 66
511 47 970 -55 1310 -105 352 -321 736 -634 1130 -45 56 -80 104 -78 107 7 6
196 -72 372 -155 250 -116 409 -206 753 -424 111 -71 209 -131 217 -135 9 -3
15 -18 15 -37 1 -52 17 -9 34 89 41 243 71 563 87 945 6 146 12 266 13 267 5
5 312 -99 437 -148 176 -69 460 -213 632 -321 521 -327 931 -692 1747 -1553
774 -816 1058 -1165 1352 -1655 61 -102 78 -140 92 -205 49 -227 207 -989 217
-1051 10 -61 9 -97 -7 -230 -23 -197 -27 -765 -6 -934 35 -280 92 -534 164
-735 53 -147 161 -367 242 -490 l65 -100 45 -260 c121 -688 234 -1428 325
-2129 11 -82 23 -152 28 -156 4 -4 36 -11 71 -14 l63 -7 -5 43 c-3 24 -22 174
-41 333 -61 497 -140 1033 -245 1667 -28 163 -50 299 -50 302 0 3 42 -29 93
-72 270 -226 594 -361 969 -401 54 -6 182 -11 286 -11 548 0 1113 121 1527
328 344 171 658 452 830 742 117 198 197 420 500 1386 146 465 240 733 405
1152 58 148 76 183 93 187 12 2 84 18 161 35 589 129 898 303 1076 604 31 53
52 77 70 81 23 6 24 8 8 19 -17 12 -16 17 6 72 67 166 111 350 182 759 25 143
67 357 94 475 79 351 82 360 100 360 40 0 65 65 35 90 -8 7 -15 20 -15 29 0
10 44 174 99 367 119 422 134 497 134 669 0 253 -68 432 -225 601 -109 116
-261 206 -498 292 -74 28 -238 91 -365 142 -290 116 -547 212 -661 246 -75 22
-115 27 -250 31 -174 6 -288 -4 -477 -41 l-117 -23 7 91 c15 171 8 669 -11
811 -43 326 -140 619 -267 806 -55 81 -166 180 -251 223 -125 62 -193 78 -373
83 -188 6 -280 -5 -580 -72 -110 -24 -238 -51 -285 -60 -348 -67 -538 -202
-624 -443 -29 -83 -31 -94 -30 -242 0 -139 4 -178 41 -375 146 -773 204 -1442
187 -2145 -13 -548 -10 -862 10 -1005 42 -294 116 -511 262 -765 51 -89 79
-183 70 -232 -3 -19 -21 -51 -39 -71 -40 -46 -147 -106 -209 -117 -26 -5 -88
-25 -138 -44 -50 -20 -141 -45 -203 -57 -126 -24 -185 -46 -254 -95 l-48 -34
-312 0 -311 0 -104 -36 c-56 -20 -138 -52 -180 -71 l-77 -35 -48 40 c-79 65
-262 259 -353 373 -47 59 -150 196 -230 305 -438 600 -633 843 -965 1204 -651
708 -1360 1259 -2085 1621 -567 284 -1175 459 -1682 485 l-128 7 0 56 c0 76
-26 369 -46 514 -9 65 -14 121 -11 123 3 3 72 14 154 24 361 47 639 120 905
241 454 205 909 590 1319 1116 46 59 145 173 220 253 720 764 1099 1425 1219
2125 73 426 35 858 -135 1545 -148 598 -715 2753 -816 3104 -36 125 -68 223
-144 436 -129 364 -359 682 -623 861 l-82 56 122 61 c138 68 346 195 456 279
308 236 542 594 645 988 46 174 58 276 63 535 l6 245 -43 -75 c-195 -349 -240
-407 -402 -529 -92 -69 -233 -136 -342 -162 -75 -18 -109 -20 -210 -16 -101 4
-228 26 -244 42 -2 3 41 52 96 109 472 489 717 1159 673 1834 -6 91 -13 168
-15 170 -2 2 -58 -44 -123 -103 -227 -202 -415 -332 -657 -455 -320 -163 -657
-256 -1050 -291 -121 -11 -446 -6 -467 7 -5 3 25 42 67 86 135 144 257 348
380 637 234 552 338 1076 322 1631 -29 1007 -470 1949 -1230 2627 -73 65 -139
124 -148 131 -14 11 -17 5 -23 -49z m-12964 -4334 c112 -589 269 -1421 652
-3470 250 -1336 556 -2971 680 -3632 125 -661 226 -1216 226 -1232 0 -16 -6
-31 -15 -35 -15 -5 -1407 -191 -1550 -206 -44 -4 -165 -20 -268 -35 -106 -16
-192 -24 -196 -19 -4 5 -137 702 -296 1549 -158 847 -366 1961 -463 2475
l-176 935 -4 300 c-7 548 41 1019 148 1452 180 731 492 1322 930 1764 127 128
277 251 300 247 10 -2 20 -31 32 -93z m10046 -2224 c554 -232 1185 -366 1958
-416 702 -45 1411 -37 1774 21 35 6 42 3 72 -29 18 -19 49 -43 68 -52 99 -50
221 -157 305 -267 36 -48 135 -208 135 -219 0 -3 -19 -11 -42 -18 -165 -49
-288 -222 -288 -408 0 -165 101 -322 254 -394 106 -50 184 -60 461 -64 264 -3
320 -10 460 -58 91 -31 142 -57 241 -123 103 -68 244 -215 307 -321 l48 -80
344 -1369 c190 -753 383 -1520 430 -1704 148 -579 193 -841 202 -1160 6 -232
-5 -380 -43 -570 -82 -413 -267 -831 -564 -1275 -145 -217 -392 -541 -460
-605 -21 -19 -113 -120 -206 -225 -226 -257 -588 -616 -753 -748 -633 -505
-1162 -666 -2328 -707 -509 -18 -963 6 -1636 85 -114 14 -227 25 -250 25 l-42
-1 26 -14 c38 -21 268 -79 449 -114 280 -54 584 -91 915 -112 208 -13 889 -6
1055 10 52 5 96 8 97 7 2 -1 8 -103 15 -227 20 -356 17 -1542 -5 -1919 -9
-168 -20 -331 -23 -363 l-6 -58 -47 43 c-98 92 -338 263 -515 367 -221 130
-520 261 -738 324 l-117 33 -94 110 c-125 144 -366 379 -497 484 -310 247
-688 435 -1006 499 -54 11 -129 23 -165 27 l-66 6 -31 67 c-122 260 -227 831
-208 1128 7 102 7 102 -22 134 -27 30 -33 32 -108 35 -105 5 -240 29 -399 69
-402 102 -833 322 -1180 601 -192 155 -395 369 -510 539 -26 39 -57 75 -69 82
-29 17 -75 16 -127 -2 -202 -72 -518 -91 -797 -49 -684 102 -1252 568 -1507
1235 -129 336 -163 761 -85 1065 28 110 59 178 155 348 145 255 210 326 330
362 67 20 341 30 419 15 123 -23 221 -89 296 -201 20 -30 86 -150 148 -266
247 -471 401 -681 769 -1054 l223 -225 -41 115 c-187 523 -223 692 -223 1055
0 348 25 479 194 1025 120 385 156 547 179 800 43 458 -53 1064 -240 1524 -16
38 -26 72 -23 75 8 8 198 -38 312 -76 59 -19 152 -56 207 -82 314 -148 407
-278 391 -547 -5 -87 -26 -271 -41 -357 -4 -25 7 -18 103 68 302 272 462 543
528 900 28 147 26 423 -4 561 -71 330 -216 581 -486 842 l-96 92 24 64 c34 95
72 154 144 223 119 117 324 237 598 352 184 76 255 95 360 96 86 0 95 -2 168
-39 42 -22 90 -39 106 -39 28 0 26 -4 -50 -74 -178 -166 -249 -344 -237 -598
7 -149 40 -286 126 -515 34 -90 63 -166 65 -167 2 -2 61 49 132 113 381 345
613 518 859 640 297 147 580 203 865 169 185 -22 308 -17 405 19 39 14 79 36
91 49 23 27 39 96 54 237 28 267 -13 413 -156 555 -212 212 -545 261 -914 133
-166 -58 -351 -118 -361 -118 -5 0 -9 22 -9 49 0 122 -60 343 -141 519 -21 45
-36 82 -33 82 2 0 57 -22 122 -49z m-449 -801 c22 -15 20 -17 -76 -74 -54 -33
-124 -77 -155 -98 -31 -21 -59 -38 -62 -38 -3 0 -1 11 4 24 5 15 5 59 0 113
-5 48 -10 118 -10 155 l0 67 138 -67 c77 -37 149 -74 161 -82z m-8032 -5496
c-3 -3 -12 -4 -19 -1 -8 3 -5 6 6 6 11 1 17 -2 13 -5z m-1180 -291 c-2 -16 -4
-3 -4 27 0 30 2 43 4 28 2 -16 2 -40 0 -55z m113 -584 c0 -9 -12 -48 -26 -85
-50 -134 -67 -291 -43 -418 11 -63 8 -71 -32 -81 -25 -6 -27 -4 -33 37 -14
101 -18 297 -7 379 10 76 47 208 67 240 8 14 74 -49 74 -72z m2126 -163 c390
-124 759 -243 819 -266 340 -125 702 -369 778 -523 26 -53 26 -56 17 -173 -22
-289 -31 -774 -21 -1091 6 -175 13 -417 17 -538 16 -561 -63 -991 -243 -1325
-161 -299 -188 -363 -199 -490 -13 -133 40 -276 139 -378 70 -72 197 -149 365
-221 670 -288 1131 -656 1412 -1127 225 -378 333 -883 300 -1404 -20 -332 -64
-563 -187 -998 -73 -262 -98 -327 -154 -409 -16 -23 -29 -46 -29 -52 0 -6 -5
-11 -11 -11 -6 0 -32 -19 -59 -42 -26 -24 -98 -72 -161 -107 -63 -36 -154 -89
-204 -119 l-90 -54 -350 6 c-192 3 -417 10 -500 16 -1128 80 -1676 333 -2045
944 -132 220 -249 495 -504 1186 -80 217 -165 446 -190 508 -30 76 -41 115
-33 117 7 3 280 61 607 130 327 68 604 127 615 129 18 5 20 12 17 66 -2 37 -8
60 -15 60 -7 0 -73 4 -147 10 -74 5 -268 17 -430 25 -545 28 -832 59 -1133
121 -904 186 -1196 381 -1372 919 -54 164 -91 332 -154 705 -98 578 -201 1014
-431 1819 -114 402 -133 500 -133 686 0 168 17 256 72 361 42 82 62 110 128
178 111 113 251 191 512 286 79 28 301 114 492 190 369 148 662 257 769 286
82 23 397 26 535 5 657 -98 1323 -384 1521 -653 62 -85 85 -164 91 -323 7
-162 -8 -266 -87 -630 -32 -148 -62 -288 -65 -310 -14 -92 22 -88 -297 -33
-741 127 -1207 180 -1588 180 -460 1 -737 -70 -1022 -261 -94 -63 -314 -248
-306 -257 2 -1 114 21 248 50 424 93 448 95 1200 116 560 16 1065 1 1217 -36
326 -79 450 -302 414 -749 -23 -278 -58 -416 -129 -510 -108 -143 -262 -187
-583 -165 -85 5 -230 14 -324 20 -196 11 -869 13 -1317 3 l-308 -6 0 -103 0
-102 93 -6 c50 -4 533 -24 1072 -46 539 -22 1027 -43 1084 -46 l104 -7 59
-125 c53 -112 59 -129 47 -147 -7 -11 -66 -108 -132 -215 -153 -251 -214 -335
-308 -425 -121 -115 -280 -182 -515 -215 -102 -14 -420 -29 -644 -31 -96 -1
-202 -4 -235 -8 l-60 -6 105 -41 c387 -152 743 -221 1005 -194 156 16 254 43
380 105 241 120 415 327 540 644 86 218 135 430 410 1771 146 711 226 1087
295 1392 76 333 82 400 43 537 -61 222 -254 399 -738 681 -161 94 -323 197
-360 230 -11 9 -84 37 -163 60 -78 24 -148 48 -156 54 -8 7 -34 126 -65 296
-29 157 -55 294 -58 304 -4 14 -1 17 10 13 8 -3 334 -107 723 -231z m2030
-1579 c312 -618 500 -1186 570 -1717 22 -169 30 -533 15 -700 -7 -73 -28 -227
-47 -343 -19 -116 -33 -215 -31 -221 5 -13 264 503 327 651 25 56 46 101 48
99 1 -2 2 -198 2 -436 0 -239 2 -431 5 -429 2 3 54 93 115 200 178 311 285
531 435 894 10 23 16 -35 40 -385 13 -196 19 -240 35 -268 15 -24 20 -53 21
-105 1 -116 9 -120 54 -27 24 48 52 91 71 105 23 17 49 64 101 177 91 198 135
319 184 508 l12 45 23 -69 c34 -100 72 -276 83 -393 16 -158 2 -260 -79 -559
-39 -141 -69 -258 -67 -260 1 -2 30 41 64 94 33 53 124 198 202 322 94 149
182 306 261 463 l118 238 7 -138 c13 -237 -13 -605 -59 -821 -8 -37 -14 -80
-13 -97 2 -28 -4 -32 -123 -92 -228 -113 -379 -153 -772 -203 -135 -17 -277
-36 -315 -43 -60 -11 -117 -9 -503 21 l-435 34 -110 68 c-156 95 -299 170
-448 234 -131 56 -224 115 -286 180 -30 31 -35 44 -39 93 -5 76 19 142 108
303 97 176 144 279 195 432 113 340 151 691 134 1238 -24 753 -23 1127 2 1089
6 -8 48 -90 95 -182z m16888 -1071 c220 -43 347 -184 450 -501 59 -184 92
-403 102 -683 6 -190 -8 -510 -25 -555 -30 -78 -160 -179 -456 -354 -399 -236
-537 -374 -576 -571 -16 -87 -8 -164 45 -392 57 -251 132 -603 246 -1160 229
-1119 273 -1297 366 -1481 250 -498 703 -620 1394 -376 210 74 210 73 15 80
-93 4 -218 7 -279 7 -244 0 -462 37 -589 100 -127 62 -202 150 -381 444 l-109
179 51 104 c37 73 57 103 69 103 10 -1 433 16 941 37 l922 38 0 81 0 81 -92 7
c-193 13 -1105 7 -1362 -10 -275 -18 -363 -13 -456 27 -66 29 -140 109 -169
185 -45 119 -74 432 -52 574 30 193 147 313 351 356 168 36 1369 27 1625 -11
50 -8 173 -32 274 -55 102 -22 191 -39 199 -38 18 4 -135 137 -236 205 -150
102 -341 169 -553 194 -131 15 -531 7 -719 -15 -213 -25 -473 -63 -763 -112
-148 -25 -271 -44 -273 -41 -3 2 -18 67 -34 143 -15 77 -42 202 -58 279 -70
324 -65 520 18 640 164 238 796 497 1332 545 252 23 302 10 938 -240 206 -81
421 -164 476 -185 140 -50 245 -114 329 -199 133 -134 170 -244 162 -476 -6
-163 -13 -194 -127 -595 -168 -589 -248 -935 -335 -1452 -81 -480 -164 -701
-323 -862 -158 -160 -399 -259 -859 -355 -281 -58 -489 -79 -1093 -111 -162
-9 -301 -18 -307 -20 -8 -3 -13 -22 -13 -49 0 -34 4 -46 18 -50 9 -3 233 -50
497 -106 263 -56 481 -103 483 -105 2 -1 -47 -137 -108 -302 -61 -164 -143
-383 -182 -488 -185 -495 -326 -754 -513 -940 -341 -340 -892 -486 -1850 -489
l-290 -1 -66 33 c-136 66 -286 263 -440 577 -161 329 -229 605 -229 930 0 444
153 881 425 1215 219 268 563 517 948 684 176 77 224 102 286 149 106 82 171
203 171 321 0 102 -27 172 -169 445 -63 119 -124 303 -150 450 -37 202 -44
398 -30 795 29 853 -21 1564 -167 2374 -59 329 -66 381 -61 472 15 236 138
345 457 404 47 9 177 37 290 62 326 73 470 87 614 60z m-12955 -1341 c7 -82
14 -171 18 -197 l6 -48 -77 0 c-42 0 -76 1 -76 3 0 2 21 75 46 163 26 87 52
176 57 196 6 21 12 36 13 35 1 -1 7 -69 13 -152z m-69 -396 c427 -39 867 -217
1205 -490 451 -363 795 -964 929 -1623 61 -297 81 -529 73 -846 -8 -308 -33
-536 -93 -829 -193 -955 -710 -2143 -1368 -3141 -63 -96 -112 -178 -108 -181
4 -4 106 -32 227 -64 121 -31 221 -58 223 -59 5 -5 -61 -315 -94 -446 -94
-364 -251 -768 -431 -1110 -115 -219 -243 -433 -243 -407 0 3 -18 94 -39 203
-157 794 -360 1428 -627 1964 -159 317 -291 530 -464 743 -40 49 -70 90 -68
91 1 2 68 29 148 61 468 185 885 449 1193 755 111 112 133 140 105 140 -7 -1
-107 -66 -223 -146 -527 -365 -963 -579 -1494 -735 -207 -60 -632 -149 -716
-149 -9 0 29 36 83 79 441 355 758 921 902 1611 17 80 46 206 65 280 66 262
86 422 86 687 0 236 -21 414 -73 618 -11 44 -33 157 -49 250 -115 667 -337
1138 -705 1496 -218 211 -460 359 -759 465 l-110 39 55 7 c30 4 123 14 205 23
307 33 471 78 715 197 80 39 165 74 190 78 31 6 108 46 250 131 225 134 414
232 530 274 120 43 268 54 480 34z m-2925 -865 c835 -105 1445 -548 1761
-1278 161 -373 244 -773 263 -1269 34 -924 -177 -1656 -632 -2182 -364 -422
-850 -666 -1492 -752 -185 -24 -653 -24 -860 0 -652 78 -1226 290 -1640 606
-91 69 -250 226 -321 317 -136 174 -227 365 -269 569 -16 78 -31 245 -23 245
3 0 56 -33 117 -74 507 -336 1300 -571 2047 -605 305 -14 585 9 715 59 27 10
120 64 206 120 l158 103 134 191 135 191 218 610 219 610 8 155 c39 721 -167
1385 -601 1933 -79 100 -323 351 -423 436 l-50 43 105 -7 c58 -3 159 -13 225
-21z m11267 -1171 c340 -366 569 -644 934 -1133 303 -406 462 -594 624 -735
44 -38 80 -73 80 -76 0 -4 -18 -18 -39 -32 -81 -54 -220 -178 -292 -262 -184
-214 -319 -463 -418 -774 l-37 -113 -68 313 c-206 945 -437 1738 -699 2404
-61 156 -182 437 -222 514 -24 48 -29 61 -22 61 2 0 73 -75 159 -167z m2772
-1999 c-140 -112 -391 -364 -476 -479 -335 -451 -425 -918 -283 -1458 20 -72
47 -181 61 -242 35 -147 86 -300 179 -535 150 -379 197 -458 344 -579 55 -46
101 -86 103 -91 5 -13 301 -49 508 -61 386 -24 724 24 1078 153 189 68 527
242 701 361 l44 30 -6 -109 c-9 -173 -66 -342 -172 -504 -74 -113 -277 -311
-409 -399 -337 -224 -760 -366 -1256 -422 -136 -15 -486 -15 -620 0 -270 31
-489 93 -705 201 -586 292 -937 860 -1021 1652 -20 191 -14 640 11 818 94 675
356 1151 790 1442 223 148 524 255 815 287 52 6 109 13 125 15 17 1 90 4 164
5 l133 1 -108 -86z"/>
<path d="M19663 32743 c-4 -9 1 -45 10 -80 56 -214 216 -472 417 -673 117
-117 211 -183 232 -162 16 16 -22 82 -144 253 -61 85 -171 242 -246 349 -211
303 -254 353 -269 313z"/>
<path d="M18955 32110 c-231 -37 -470 -141 -600 -262 -71 -66 -118 -146 -140
-239 -20 -86 -39 -381 -32 -499 8 -131 53 -278 124 -411 2 -4 -45 -8 -104 -11
-113 -5 -163 -19 -144 -42 6 -7 50 -24 98 -39 49 -14 150 -44 226 -67 239 -70
434 -155 728 -316 132 -72 165 -82 161 -45 -2 19 1 22 15 16 91 -35 352 -46
490 -20 333 63 571 256 638 514 85 329 -60 757 -354 1052 -180 179 -386 294
-631 350 -98 23 -377 34 -475 19z m555 -197 c350 -116 642 -424 756 -798 25
-81 28 -105 28 -240 0 -161 -12 -214 -70 -307 -108 -172 -355 -298 -645 -329
-129 -14 -343 1 -369 27 -12 12 -1 13 90 8 174 -11 287 30 401 145 76 78 146
208 180 336 32 120 37 339 11 465 -26 124 -77 260 -138 362 -61 103 -230 276
-324 331 -57 34 -60 38 -30 32 19 -4 69 -19 110 -32z m-325 -57 c226 -76 422
-272 521 -520 104 -261 87 -583 -42 -788 -90 -143 -191 -198 -399 -217 -82 -8
-104 -7 -120 5 -11 8 -56 42 -100 74 -147 109 -378 210 -567 248 l-90 19 -29
109 c-40 151 -69 322 -69 409 0 188 122 470 259 598 55 51 86 62 236 82 152
21 302 14 400 -19z"/>
<path d="M18660 31604 c-112 -30 -204 -116 -251 -234 -27 -68 -37 -229 -20
-311 19 -93 72 -189 147 -268 107 -114 265 -181 423 -181 187 1 364 107 442
266 29 58 34 79 37 161 4 79 1 104 -18 156 -47 129 -128 219 -266 296 -132 74
-171 91 -251 111 -89 23 -166 24 -243 4z"/>
<path d="M23406 31905 c-225 -47 -425 -168 -561 -340 -109 -138 -176 -311
-195 -501 -17 -173 -13 -291 14 -395 98 -386 413 -673 864 -787 97 -24 124
-27 287 -26 169 0 185 1 260 27 261 87 435 297 517 624 19 75 22 116 23 278 0
176 -2 198 -28 297 -48 186 -113 322 -216 450 -136 172 -324 299 -531 358 -98
28 -331 36 -434 15z m360 -135 c322 -82 577 -347 672 -699 23 -88 26 -113 26
-286 0 -225 -14 -289 -93 -450 -105 -212 -249 -315 -481 -344 -82 -11 -240 -4
-240 10 0 4 14 10 31 14 50 11 174 102 228 166 141 168 201 363 201 648 0 249
-35 444 -107 590 -77 157 -242 285 -448 346 l-80 24 106 0 c75 1 129 -5 185
-19z m-308 -63 c207 -93 297 -159 371 -271 91 -140 124 -299 124 -601 0 -183
-2 -208 -25 -296 -74 -273 -228 -433 -452 -469 -80 -13 -152 7 -273 76 -320
181 -513 492 -513 824 0 128 62 305 153 440 49 72 175 196 244 242 60 38 213
107 240 108 6 0 66 -24 131 -53z"/>
<path d="M23205 31285 c-22 -9 -65 -23 -95 -31 -188 -51 -312 -250 -283 -452
22 -151 112 -276 249 -348 82 -44 151 -58 249 -51 145 9 247 74 306 193 80
162 34 438 -97 583 -86 95 -234 143 -329 106z"/>
<path d="M22066 31815 c-18 -49 -26 -206 -16 -343 38 -540 282 -1063 682
-1462 128 -128 218 -198 425 -334 180 -117 235 -166 266 -235 88 -197 -115
-547 -455 -788 -122 -85 -95 -95 61 -22 108 51 195 113 287 206 182 184 285
416 255 578 -25 137 -111 237 -328 381 -252 168 -420 316 -576 509 -322 399
-501 839 -567 1400 -13 108 -22 139 -34 110z"/>
<path d="M21276 29090 c26 -44 140 -148 208 -189 224 -134 444 -132 628 8 70
52 116 71 176 71 92 0 182 -71 182 -144 0 -24 3 -27 10 -16 5 8 10 33 10 56 0
86 -80 152 -195 162 -93 7 -125 -3 -222 -67 -106 -71 -169 -91 -279 -91 -138
0 -258 48 -429 170 -110 78 -111 79 -89 40z"/>
<path d="M18175 28960 c-179 -29 -336 -106 -472 -234 -122 -113 -208 -277
-201 -383 5 -77 23 -70 150 60 115 116 218 196 319 247 l56 29 11 -48 c32
-140 189 -470 329 -696 446 -716 1137 -1318 1918 -1673 758 -344 1398 -409
2011 -204 765 256 1278 810 1654 1786 l46 119 89 24 c334 88 535 330 535 643
0 92 -18 176 -47 218 -18 27 -18 27 -24 -108 -7 -157 -30 -240 -99 -345 -120
-184 -258 -244 -660 -289 -1538 -172 -3026 -104 -4573 210 -479 97 -682 154
-874 244 -123 58 -249 138 -237 150 17 16 177 51 260 57 l84 6 0 87 c0 70 -3
89 -15 94 -30 11 -200 15 -260 6z m86 -476 c157 -104 403 -201 759 -298 1502
-411 3188 -504 4740 -261 85 13 156 22 158 20 5 -5 -241 -430 -335 -578 -118
-185 -273 -386 -405 -522 -197 -205 -372 -332 -623 -455 -216 -106 -416 -168
-660 -206 -149 -23 -451 -23 -600 0 -626 96 -1340 427 -1920 891 -144 115
-405 354 -465 424 l-42 51 44 -19 c114 -48 528 -161 830 -225 343 -74 767
-136 1158 -172 228 -20 790 -31 790 -15 0 6 -6 11 -13 11 -31 0 -681 62 -842
80 -534 60 -1000 140 -1638 279 -150 33 -289 63 -309 66 -31 6 -51 22 -106 84
-166 187 -282 337 -420 543 -89 133 -262 413 -262 424 0 3 21 -13 47 -36 26
-23 77 -61 114 -86z"/>
<path d="M13927 28679 c-62 -15 -130 -55 -174 -102 -66 -72 -72 -121 -8 -73
19 15 61 39 93 54 48 23 71 27 142 27 76 0 93 -4 150 -32 112 -55 215 -181
259 -317 37 -112 52 -234 61 -511 10 -294 27 -417 77 -541 53 -133 151 -252
251 -307 105 -57 246 -71 322 -32 45 23 36 35 -24 35 -178 0 -338 122 -414
316 -43 107 -53 189 -62 499 -12 401 -31 510 -116 675 -121 236 -344 359 -557
309z"/>
<path d="M13645 27901 c-4 -32 -1 -103 5 -157 35 -296 192 -583 416 -763 75
-60 191 -128 201 -117 3 3 -18 27 -48 52 -297 259 -463 546 -529 913 -11 63
-20 118 -20 123 0 4 -4 8 -9 8 -5 0 -12 -26 -16 -59z"/>
<path d="M33140 15893 c-153 -24 -292 -68 -423 -136 -385 -196 -640 -531 -752
-987 -11 -41 -20 -76 -20 -78 -1 -1 -58 -13 -126 -26 -288 -56 -487 -171 -652
-376 -189 -236 -266 -558 -203 -856 l13 -60 -96 24 c-143 36 -409 42 -576 14
-225 -39 -430 -114 -612 -224 l-92 -55 -78 22 c-295 86 -657 44 -968 -112
-278 -140 -520 -384 -638 -642 l-33 -74 -52 66 c-150 188 -354 318 -597 379
-79 20 -115 22 -295 22 -175 0 -220 -3 -310 -23 -500 -108 -909 -382 -1253
-839 -38 -51 -72 -91 -74 -89 -12 12 209 935 257 1072 54 154 69 215 81 321
20 176 -13 382 -85 539 -131 284 -369 476 -695 562 -132 35 -376 43 -519 18
-194 -35 -354 -100 -527 -216 -246 -164 -427 -392 -540 -677 -55 -139 -202
-748 -295 -1217 -12 -60 -23 -111 -25 -113 -1 -2 -56 -14 -122 -27 -317 -65
-634 -218 -913 -443 -185 -150 -399 -381 -550 -594 -30 -43 -57 -77 -60 -77
-3 0 -24 40 -48 88 -88 179 -238 329 -430 428 -181 95 -340 133 -547 133 -321
0 -625 -119 -869 -340 -36 -33 -69 -60 -71 -60 -3 0 -31 13 -63 29 -189 95
-449 131 -689 95 -58 -8 -106 -14 -107 -12 -1 2 -12 37 -25 78 -43 137 -122
275 -220 382 l-50 54 11 80 c42 332 -110 694 -377 896 -203 154 -432 228 -706
228 -275 0 -512 -73 -754 -235 -123 -82 -293 -253 -375 -378 l-64 -97 -14 27
c-8 16 -35 62 -60 103 -312 511 -817 856 -1457 995 -221 48 -334 59 -600 59
-251 0 -342 -7 -570 -45 -742 -124 -1435 -494 -1863 -994 -319 -372 -515 -820
-563 -1284 -15 -142 -6 -456 16 -596 67 -423 214 -794 440 -1109 31 -43 55
-79 53 -80 -2 -2 -42 -10 -90 -19 -441 -85 -745 -413 -835 -901 -21 -111 -23
-415 -5 -556 50 -377 185 -761 375 -1062 240 -380 592 -677 1008 -852 566
-237 1184 -277 1907 -125 79 17 146 29 148 26 3 -2 -11 -58 -31 -123 -56 -183
-112 -422 -136 -573 -12 -75 -43 -226 -70 -336 -103 -427 -123 -597 -123
-1030 0 -303 2 -356 22 -485 62 -395 171 -695 351 -966 182 -272 388 -455 666
-589 324 -156 701 -207 1120 -149 521 71 970 290 1296 631 238 250 382 536
438 867 l16 100 53 -68 c287 -364 731 -540 1230 -485 391 42 741 200 992 449
72 72 187 213 251 310 l17 25 89 -86 c327 -315 776 -427 1283 -317 492 106
863 396 1113 870 l46 88 47 -73 c152 -235 400 -362 672 -344 306 20 521 217
550 503 l7 65 50 -66 c86 -115 220 -210 370 -262 76 -26 89 -28 255 -27 157 0
185 3 273 27 118 32 261 98 361 167 104 72 297 272 345 359 7 11 22 4 76 -36
79 -59 182 -112 280 -143 89 -28 299 -39 413 -20 244 39 471 166 637 356 36
41 72 85 81 99 l16 24 56 -38 c270 -183 621 -188 852 -12 101 77 167 183 194
314 9 42 16 87 16 101 0 14 5 37 10 51 l10 27 44 -59 c109 -147 261 -251 453
-310 78 -24 104 -26 238 -27 121 0 167 4 237 22 115 28 227 72 312 122 37 22
70 40 72 40 2 0 4 -19 4 -42 0 -72 28 -223 61 -326 135 -423 448 -707 870
-787 48 -9 137 -15 219 -15 556 0 920 269 1120 829 72 203 140 501 180 792
l21 154 42 34 c103 85 286 276 366 381 286 380 437 805 481 1355 l11 140 93
156 93 156 -16 39 c-48 119 -153 229 -273 288 -62 31 -92 38 -203 51 l-130 15
-34 38 c-59 66 -189 245 -232 319 -148 259 -170 510 -62 715 61 116 184 208
321 240 51 11 53 11 149 -34 198 -93 353 -123 593 -115 240 8 423 53 635 156
55 27 156 65 225 85 68 21 125 38 126 39 1 1 41 67 89 146 47 80 124 194 169
255 199 268 333 537 436 877 126 418 202 1084 147 1289 -76 276 -222 459 -461
575 -114 56 -224 85 -348 92 -98 6 -98 6 -97 32 3 71 12 83 67 102 287 98 529
349 631 654 116 350 23 764 -231 1032 l-31 32 -1 193 c-2 179 -4 199 -29 281
-54 175 -132 309 -249 427 -149 150 -359 256 -587 295 -76 14 -325 19 -391 8z
m501 -609 c132 -39 218 -108 268 -213 23 -49 26 -68 26 -161 0 -95 -4 -116
-37 -215 -34 -99 -88 -289 -88 -307 0 -5 17 -8 38 -8 105 -1 211 -50 291 -135
78 -84 106 -157 106 -280 0 -81 -4 -97 -34 -163 -43 -92 -133 -180 -215 -211
-30 -11 -126 -32 -213 -47 -87 -15 -163 -32 -169 -38 -13 -12 -124 -586 -184
-950 -43 -263 -81 -538 -106 -771 -20 -187 -26 -607 -8 -625 24 -24 149 304
225 594 60 227 65 240 102 283 42 48 82 69 177 93 47 11 96 29 110 39 111 80
260 97 367 43 55 -29 107 -90 123 -145 10 -39 11 -78 1 -205 -53 -727 -257
-1266 -612 -1620 -122 -121 -232 -186 -408 -239 -74 -22 -105 -26 -216 -26
-444 0 -483 4 -609 71 -170 89 -311 275 -397 524 l-23 67 -71 -137 c-126 -246
-261 -429 -441 -602 -113 -109 -198 -169 -315 -225 -167 -78 -350 -114 -501
-96 -46 5 -139 9 -208 9 -115 -1 -132 1 -210 28 -169 59 -287 168 -371 339
-60 124 -86 230 -99 408 -10 150 1 471 25 725 7 81 12 148 11 149 -5 6 -77
-157 -162 -367 -87 -216 -204 -553 -280 -805 -25 -82 -68 -220 -95 -305 -42
-129 -51 -169 -53 -240 -4 -139 -41 -197 -162 -252 -42 -19 -65 -22 -159 -21
-60 1 -174 1 -252 2 -125 0 -152 3 -218 26 -41 14 -92 36 -113 49 -115 72
-181 222 -200 450 l-7 89 -46 -69 c-360 -541 -986 -933 -1534 -960 -172 -9
-580 12 -660 34 -102 28 -204 73 -283 125 -80 54 -202 179 -251 258 l-34 55
-74 -146 c-154 -305 -342 -514 -558 -621 -144 -71 -231 -92 -390 -92 -428 -1
-478 4 -588 59 -65 33 -159 106 -191 149 l-25 32 -128 -127 c-158 -157 -262
-235 -418 -311 -209 -102 -412 -146 -615 -134 -63 3 -164 6 -225 6 -277 -3
-533 116 -688 319 -27 36 -52 66 -56 67 -3 2 -22 -27 -41 -65 -77 -149 -198
-312 -315 -426 -165 -161 -395 -258 -615 -259 -210 0 -447 10 -490 22 -60 17
-145 62 -200 104 l-45 35 -93 -99 c-51 -54 -121 -119 -155 -145 -79 -60 -220
-127 -322 -153 -86 -22 -262 -44 -278 -34 -5 3 -90 7 -189 8 -207 4 -254 13
-360 67 -133 69 -245 205 -323 392 -28 69 -34 76 -40 55 -15 -50 -117 -244
-171 -327 -102 -157 -239 -307 -344 -379 -73 -50 -183 -101 -277 -129 -97 -30
-189 -34 -523 -23 -137 4 -175 9 -224 27 -299 110 -492 431 -575 952 -31 192
-41 342 -41 620 0 458 44 964 130 1488 17 100 30 186 30 190 0 4 -20 6 -46 4
-25 -2 -78 4 -118 13 -57 14 -80 15 -111 6 -47 -13 -116 -14 -167 -2 l-36 8
-49 -71 c-67 -99 -195 -225 -279 -274 -155 -92 -348 -139 -519 -127 -55 4
-152 6 -215 5 -289 -5 -461 104 -549 346 -61 167 -71 368 -32 619 52 331 63
438 57 542 -14 228 -76 358 -203 423 l-43 22 -67 -22 c-101 -32 -176 -76 -253
-147 -163 -151 -254 -364 -266 -623 -10 -201 38 -419 128 -582 146 -263 481
-556 993 -868 312 -189 526 -352 721 -545 152 -152 247 -271 311 -392 121
-229 176 -539 139 -783 -107 -696 -753 -1234 -1711 -1425 -339 -67 -538 -82
-930 -66 -297 12 -412 26 -585 72 -299 80 -534 207 -732 398 -136 129 -214
237 -306 421 -120 239 -181 449 -204 713 -26 293 40 502 184 582 31 17 90 39
131 49 41 9 90 28 108 42 53 39 137 66 226 71 103 7 157 -11 226 -76 79 -73
105 -137 142 -341 60 -332 143 -508 325 -690 103 -102 211 -169 347 -216 129
-44 199 -54 368 -54 168 1 278 19 343 56 76 43 232 208 269 284 112 225 73
442 -114 626 -128 126 -237 202 -912 643 -247 160 -423 301 -596 475 -331 332
-511 650 -590 1040 -63 314 -51 608 36 871 150 450 496 828 987 1078 147 75
610 258 762 302 300 86 552 120 845 112 282 -7 503 -51 728 -143 285 -117 515
-295 682 -529 187 -261 294 -613 295 -966 l0 -117 58 23 c31 13 127 35 212 50
85 14 164 30 174 34 16 6 31 54 82 268 34 143 77 296 95 339 90 215 263 373
474 432 39 11 106 38 150 60 295 149 633 76 741 -160 25 -56 29 -74 28 -158 0
-82 -5 -109 -36 -200 -20 -58 -50 -156 -66 -217 l-30 -113 33 0 c105 0 213
-46 292 -126 158 -158 155 -413 -6 -574 -78 -78 -127 -97 -334 -135 -98 -18
-179 -34 -181 -36 -4 -5 -105 -526 -145 -749 -68 -379 -119 -742 -146 -1040
-15 -170 -19 -474 -7 -545 l7 -39 42 91 c68 149 132 335 185 543 28 111 60
214 75 238 32 57 94 95 196 121 45 12 91 27 102 33 75 44 125 67 158 73 42 8
42 10 52 120 13 144 76 563 96 635 37 135 83 215 178 310 95 95 179 145 296
179 39 11 105 38 149 60 278 142 612 64 723 -168 20 -42 28 -77 31 -137 4 -72
-1 -103 -51 -305 -142 -573 -219 -1018 -219 -1280 -1 -183 9 -197 54 -77 108
281 200 717 283 1338 36 274 57 368 100 465 76 172 229 305 415 362 47 14 119
42 160 63 101 52 186 73 295 73 145 1 268 -45 357 -134 70 -70 101 -143 106
-249 3 -75 -1 -104 -37 -240 -135 -515 -232 -1089 -230 -1358 l1 -127 38 80
c67 139 123 317 231 728 12 46 69 112 119 137 20 10 73 28 118 40 46 11 101
34 127 51 24 16 76 38 114 47 64 16 70 19 81 52 48 134 204 421 313 574 103
145 292 350 427 462 127 106 323 214 475 264 39 13 95 35 125 50 131 65 326
116 496 128 l98 7 13 80 c55 341 252 1253 319 1475 67 219 187 371 374 473 36
20 97 45 135 55 39 11 113 40 165 65 52 24 116 50 142 56 189 45 389 3 501
-107 59 -57 91 -117 107 -200 17 -84 8 -158 -34 -272 -42 -118 -133 -476 -225
-890 -174 -783 -305 -1549 -357 -2080 -17 -174 -21 -511 -7 -570 9 -35 9 -34
56 74 66 150 129 336 183 545 25 97 55 193 65 214 34 65 119 112 259 142 19 4
53 20 75 35 47 32 123 60 166 60 33 0 29 -7 85 150 52 144 178 393 263 521 85
127 233 302 324 381 145 127 312 227 457 273 30 9 99 37 153 61 236 107 512
139 668 78 110 -44 201 -131 260 -249 189 -381 -38 -1047 -480 -1409 -96 -79
-204 -138 -321 -177 l-99 -32 -7 -55 c-9 -71 1 -168 22 -221 9 -23 37 -59 62
-81 61 -55 131 -74 238 -67 70 4 88 9 125 35 293 202 535 568 630 950 18 75
37 125 54 148 33 43 98 76 195 99 42 11 91 30 113 46 38 28 109 55 157 61 l24
3 18 209 c20 246 53 524 69 581 28 99 115 226 206 297 82 64 154 103 258 137
50 16 129 48 176 70 253 119 523 106 666 -31 l42 -41 69 51 c90 67 219 136
324 171 45 16 117 45 159 65 201 94 439 126 619 84 25 -6 83 -28 129 -50 259
-123 372 -410 341 -865 -11 -151 -20 -241 -65 -608 -29 -241 -43 -485 -28
-485 25 0 130 303 208 598 30 111 64 220 76 243 31 54 93 93 192 118 45 12 93
28 107 36 57 33 146 75 161 75 13 0 17 29 28 188 21 320 76 788 126 1072 22
127 23 126 -26 122 -22 -3 -72 3 -111 13 -60 14 -79 15 -135 5 -120 -23 -228
9 -312 92 -69 69 -94 127 -99 235 -4 83 -2 97 22 150 50 109 134 174 270 207
39 10 95 32 125 51 73 43 94 49 295 84 92 17 169 31 171 33 1 2 32 127 69 279
57 236 74 290 116 375 27 54 67 120 88 146 88 105 214 191 335 228 40 12 115
41 167 65 109 50 152 64 224 76 68 10 191 2 257 -17z m-18315 -5770 c-3 -9 -6
-21 -6 -27 0 -6 -8 -3 -17 6 -16 16 -16 19 -3 27 22 14 33 12 26 -6z m-2693
-1192 c257 -167 357 -235 357 -243 0 -21 -191 -34 -275 -20 -89 16 -129 37
-191 103 -61 64 -75 90 -102 183 -32 110 -35 128 -20 122 7 -2 111 -68 231
-145z m18866 27 c117 -26 218 -101 270 -198 51 -97 61 -174 61 -499 1 -255 2
-283 14 -249 26 72 71 103 196 132 44 10 92 29 117 46 84 59 178 74 264 44 53
-19 84 -47 111 -100 19 -36 20 -51 14 -155 -37 -655 -317 -1199 -798 -1553
-54 -39 -68 -55 -68 -76 0 -52 -60 -445 -90 -593 -60 -291 -143 -530 -232
-668 -57 -88 -170 -198 -243 -236 -72 -38 -166 -69 -254 -84 -91 -16 -563 -4
-651 17 -36 8 -103 33 -150 55 -69 33 -100 57 -170 127 -71 71 -94 103 -133
181 -60 121 -87 227 -94 365 -9 177 24 278 137 420 97 122 222 208 534 368
127 65 224 116 215 113 -9 -2 -46 -13 -81 -24 -102 -32 -220 -46 -317 -37 -47
4 -150 8 -229 9 l-143 1 -26 -45 c-81 -139 -260 -341 -379 -426 -136 -97 -284
-148 -429 -146 -49 0 -155 1 -234 2 -80 0 -165 5 -189 11 -161 36 -287 160
-350 343 -27 80 -27 84 -27 342 0 302 9 301 -99 9 -107 -288 -226 -661 -226
-707 0 -177 -153 -266 -366 -212 -49 12 -71 13 -101 5 -92 -26 -209 -7 -295
48 -52 33 -101 106 -120 180 l-11 43 -41 -78 c-149 -285 -344 -459 -573 -510
-56 -12 -100 -15 -181 -10 -59 3 -172 7 -252 8 -139 3 -148 4 -212 35 -84 40
-148 98 -209 191 l-48 73 -45 -88 c-118 -232 -278 -407 -450 -492 -122 -60
-190 -76 -331 -74 -66 0 -181 1 -256 1 -165 1 -221 18 -302 92 -67 61 -103
128 -161 300 -26 74 -48 141 -51 148 -11 30 -184 -181 -241 -293 l-35 -69 7
-121 c6 -111 5 -124 -14 -162 -50 -97 -190 -137 -334 -97 -47 13 -66 14 -102
5 -109 -27 -216 -5 -291 61 -99 87 -156 212 -178 392 -7 52 -16 95 -22 96 -5
1 -47 -6 -92 -16 l-82 -17 -36 -111 c-75 -234 -207 -463 -360 -624 -108 -114
-187 -173 -330 -243 -198 -98 -447 -148 -665 -135 -58 3 -170 8 -250 10 -215
6 -363 52 -515 160 -112 80 -233 230 -289 359 l-23 52 -24 -55 c-75 -179 -190
-357 -314 -488 -180 -191 -381 -300 -675 -364 -97 -21 -126 -22 -380 -20 -364
3 -463 19 -631 103 -271 135 -457 419 -515 787 -23 148 -16 445 15 597 91 448
352 919 678 1225 187 175 415 320 603 383 41 14 109 41 151 60 223 103 493
148 668 113 113 -23 189 -64 265 -140 111 -113 170 -267 164 -430 -2 -82 0
-95 20 -123 22 -31 52 -92 86 -177 l17 -40 55 99 c129 229 282 421 462 578
183 160 332 251 536 327 56 21 146 57 200 80 155 66 268 91 432 97 160 6 214
-2 312 -50 42 -20 82 -51 126 -97 106 -113 156 -242 156 -404 0 -88 1 -92 49
-185 53 -104 106 -257 117 -339 l7 -52 38 34 c21 19 52 42 68 51 17 8 31 18
31 20 0 21 93 632 141 930 33 204 80 507 104 674 39 262 49 313 74 368 56 118
181 216 334 260 45 13 116 41 158 63 299 155 599 39 599 -233 0 -43 -13 -105
-40 -202 -58 -199 -123 -461 -185 -745 -76 -347 -182 -917 -172 -927 8 -8 129
163 160 227 30 62 32 70 29 163 -2 66 2 115 12 150 36 125 138 219 285 263 47
14 127 46 176 70 151 76 285 82 418 21 146 -67 227 -218 227 -427 0 -196 -84
-375 -291 -624 l-80 -96 27 -46 c15 -25 41 -91 59 -147 l32 -101 22 58 c12 32
44 133 70 223 27 91 58 177 68 192 30 39 74 61 173 86 54 14 101 32 118 47 26
22 54 36 103 51 12 4 18 24 23 74 11 105 63 443 80 517 48 204 181 339 391
397 43 12 95 32 115 45 73 48 147 68 255 68 122 0 190 -23 263 -89 105 -95
120 -203 58 -415 -64 -218 -175 -749 -164 -782 4 -10 55 155 87 278 22 82 70
118 201 149 44 10 92 29 117 46 56 39 115 59 174 59 l49 0 0 40 c0 57 26 308
51 480 15 112 27 159 50 207 57 118 186 216 344 262 39 11 105 38 149 60 182
93 406 94 515 2 l35 -29 40 26 c47 29 159 77 206 87 18 4 74 27 124 51 129 62
227 86 356 86 121 1 200 -21 286 -77 107 -70 183 -204 199 -352 15 -140 13
-139 54 -23 170 481 536 888 913 1014 40 14 107 40 149 60 183 83 324 111 526
104 l138 -6 70 34 c39 19 90 38 115 43 63 12 177 12 229 0z m-5298 -470 c76
-36 133 -90 166 -157 24 -49 28 -69 28 -142 -1 -114 -37 -191 -129 -278 -82
-76 -136 -101 -315 -146 -233 -59 -327 -45 -419 59 -139 158 -151 400 -27 528
55 57 111 84 250 121 173 46 165 44 285 43 91 -2 113 -6 161 -28z m-9850
-1095 c118 -20 272 -70 381 -125 278 -140 489 -382 587 -675 49 -147 65 -257
65 -459 -1 -385 -101 -674 -303 -876 -122 -122 -312 -191 -481 -174 -41 4
-140 8 -220 9 -140 1 -147 2 -210 32 -36 17 -83 46 -103 64 -44 38 -99 149
-118 235 -19 87 -16 292 9 505 32 279 34 327 23 421 -15 118 -35 179 -73 223
l-33 38 -62 -42 c-179 -119 -358 -406 -478 -766 -113 -338 -181 -714 -192
-1064 -7 -215 7 -383 43 -549 54 -243 135 -416 258 -549 56 -61 176 -138 252
-162 82 -25 217 -27 271 -5 20 9 73 53 118 98 141 143 216 326 236 572 26 323
65 388 264 441 55 14 109 34 120 44 58 54 177 75 268 48 58 -17 141 -98 177
-171 37 -78 56 -150 71 -279 48 -418 -126 -840 -465 -1127 -307 -259 -689
-404 -1151 -436 -126 -8 -573 11 -677 29 -537 96 -915 483 -1072 1101 -56 216
-70 354 -70 675 0 307 8 410 55 670 83 462 262 922 496 1273 239 360 558 639
870 762 54 21 157 63 228 92 249 104 423 141 666 142 99 1 190 -5 250 -15z"/>
<path d="M32826 14913 c-20 -32 -50 -94 -67 -137 -23 -61 -99 -350 -153 -589
-3 -10 0 -17 6 -15 6 2 30 85 53 184 80 337 104 416 154 517 26 53 47 97 45
97 -1 0 -19 -26 -38 -57z"/>
<path d="M31766 13858 c-63 -96 -69 -234 -16 -338 33 -63 50 -76 24 -17 -48
108 -50 230 -5 332 22 49 20 58 -3 23z"/>
<path d="M24075 13356 c-60 -103 -112 -284 -224 -786 -97 -437 -208 -1017
-196 -1028 12 -12 19 17 46 175 67 397 259 1278 321 1473 17 52 43 121 59 153
34 67 31 76 -6 13z"/>
<path d="M32422 13289 c-21 -56 -100 -632 -126 -919 -23 -250 -38 -509 -29
-523 12 -19 21 29 22 115 3 231 61 769 127 1181 24 149 26 201 6 146z"/>
<path d="M28661 12186 c-53 -85 -79 -227 -116 -621 -28 -305 -32 -396 -18
-414 10 -13 12 -8 13 36 0 75 27 400 51 613 23 211 40 293 74 368 28 60 26 67
-4 18z"/>
<path d="M16665 12070 c-55 -90 -91 -199 -156 -474 -52 -217 -62 -272 -45
-255 2 2 33 126 69 274 67 280 97 373 148 463 40 71 29 66 -16 -8z"/>
<path d="M33841 12067 c-11 -19 -41 -112 -66 -208 -78 -298 -145 -483 -246
-679 -32 -63 -50 -104 -39 -90 34 42 156 298 199 418 23 62 66 208 97 325 31
116 63 224 70 240 20 38 10 34 -15 -6z"/>
<path d="M11929 11973 c-13 -16 -12 -17 4 -4 16 13 21 21 13 21 -2 0 -10 -8
-17 -17z"/>
<path d="M11839 11833 c-63 -108 -117 -228 -157 -353 -103 -323 -93 -678 30
-1060 39 -120 147 -349 189 -400 11 -14 6 0 -11 30 -138 242 -224 532 -251
841 -13 149 -3 317 27 459 32 156 117 371 203 518 17 28 29 52 27 52 -3 0 -28
-39 -57 -87z"/>
<path d="M14156 11802 c56 -139 57 -382 4 -707 -41 -254 -48 -391 -26 -524 24
-139 67 -258 120 -326 8 -11 0 12 -19 50 -43 88 -72 199 -87 333 -13 116 -4
234 37 489 51 323 54 482 10 627 -13 42 -51 116 -60 116 -1 0 8 -26 21 -58z"/>
<path d="M31791 11706 c-11 -18 -44 -120 -71 -227 -71 -272 -143 -479 -219
-635 -37 -73 -60 -128 -53 -122 25 21 142 277 187 408 25 74 71 230 102 345
30 116 62 222 69 238 20 38 10 34 -15 -7z"/>
<path d="M30238 11724 c-4 -6 -12 -69 -18 -140 -6 -71 -19 -228 -30 -349 -54
-596 -52 -860 7 -1065 25 -88 78 -210 107 -245 9 -11 2 12 -17 50 -129 265
-141 510 -67 1359 30 333 33 414 18 390z"/>
<path d="M25936 11418 c-72 -110 -155 -269 -210 -400 -57 -137 -118 -325 -113
-352 2 -13 12 8 25 54 71 239 204 540 311 703 28 42 48 77 46 77 -3 0 -30 -37
-59 -82z"/>
<path d="M32301 11053 c-1 -59 44 -268 86 -393 36 -109 109 -266 143 -310 10
-14 -3 20 -31 75 -63 128 -122 307 -154 477 -14 73 -30 147 -34 163 -9 29 -9
28 -10 -12z"/>
<path d="M28021 11048 c-11 -17 -27 -65 -37 -107 -34 -155 -119 -362 -209
-508 -14 -24 -24 -43 -21 -43 6 0 97 151 130 217 46 92 87 205 116 319 15 62
33 121 39 133 18 33 3 25 -18 -11z"/>
<path d="M19876 10678 c-78 -134 -102 -225 -146 -558 -92 -705 -207 -1200
-335 -1450 -24 -47 -35 -74 -23 -60 31 37 103 193 138 300 90 276 181 736 250
1266 32 248 61 369 114 477 38 76 39 88 2 25z"/>
<path d="M23556 10671 c-11 -16 -26 -247 -26 -394 l0 -138 -61 -132 c-59 -128
-184 -366 -219 -417 -25 -37 -34 -58 -15 -35 35 43 128 209 219 395 l96 194 0
93 c0 52 5 171 11 264 10 163 9 193 -5 170z"/>
<path d="M21939 10543 c-104 -165 -282 -563 -252 -563 4 0 21 37 37 83 56 159
149 354 241 505 14 23 24 42 21 42 -2 0 -23 -30 -47 -67z"/>
<path d="M25101 10529 c-11 -18 -29 -73 -42 -123 -76 -314 -156 -541 -258
-743 -32 -62 -51 -107 -44 -101 24 19 150 289 197 420 25 70 70 219 100 332
30 112 59 214 65 225 18 33 3 25 -18 -10z"/>
<path d="M16265 10458 c-14 -62 -58 -355 -85 -571 -85 -687 -99 -1244 -40
-1649 39 -263 114 -509 202 -660 21 -38 41 -68 44 -68 2 0 -9 24 -25 53 -91
161 -165 418 -207 717 -21 155 -30 699 -15 942 24 388 94 968 147 1231 7 33
-13 37 -21 5z"/>
<path d="M23242 10395 c-200 -240 -367 -538 -456 -812 -46 -145 -59 -217 -54
-307 5 -106 18 -114 75 -51 126 141 262 359 404 650 l97 200 7 203 c3 111 4
202 2 202 -3 0 -36 -38 -75 -85z"/>
<path d="M18390 10440 c-37 -52 -87 -172 -109 -260 -41 -170 -119 -796 -101
-814 12 -12 16 12 29 164 19 208 80 614 107 707 14 48 42 120 63 160 21 40 37
73 35 73 -1 0 -12 -13 -24 -30z"/>
<path d="M28492 10296 c-23 -88 2 -520 38 -654 21 -76 62 -166 80 -177 6 -4 0
15 -14 42 -57 113 -76 244 -84 578 -6 239 -8 256 -20 211z"/>
<path d="M11960 9926 c0 -2 8 -10 18 -17 15 -13 16 -12 3 4 -13 16 -21 21 -21
13z"/>
<path d="M21187 9833 c-9 -16 -36 -109 -62 -208 -81 -311 -165 -542 -254 -696
-22 -39 -36 -67 -32 -64 16 9 96 156 135 244 57 131 112 298 167 506 27 105
54 201 60 214 14 34 3 38 -14 4z"/>
<path d="M25581 9639 c-2 -58 101 -292 155 -354 l26 -30 -22 32 c-34 52 -98
194 -129 289 -17 51 -30 78 -30 63z"/>
<path d="M17687 9237 c-17 -26 -39 -98 -91 -297 -19 -74 -51 -182 -71 -240
-35 -101 -125 -313 -150 -355 -7 -11 -24 -42 -39 -70 -21 -37 -22 -44 -7 -25
28 34 121 215 164 320 55 135 92 251 146 458 28 105 55 201 61 212 15 27 6 25
-13 -3z"/>
<path d="M23779 8855 c5 -11 17 -29 26 -40 l16 -20 -10 20 c-5 11 -17 29 -26
40 l-16 20 10 -20z"/>
<path d="M21628 8814 c-9 -13 46 -146 88 -216 20 -32 37 -58 38 -58 2 0 -16
39 -40 86 -24 48 -51 111 -62 142 -10 31 -21 52 -24 46z"/>
<path d="M11270 8618 c-49 -85 -71 -170 -77 -298 -13 -261 53 -564 184 -840
51 -109 138 -260 150 -260 3 0 -5 15 -17 33 -49 74 -161 317 -199 433 -119
364 -131 726 -31 926 36 72 30 75 -10 6z"/>
<path d="M18191 8450 c-3 -133 123 -514 203 -615 9 -11 -4 21 -28 70 -55 113
-109 280 -136 421 -11 60 -25 123 -29 139 -8 28 -9 27 -10 -15z"/>
<path d="M13886 8297 c57 -127 55 -284 -6 -417 -17 -36 -23 -56 -14 -45 27 34
63 117 75 175 22 104 -7 252 -61 320 -17 20 -15 14 6 -33z"/>
<path d="M23245 7712 c-41 -62 -62 -138 -85 -302 -26 -186 -72 -486 -139 -905
-28 -170 -64 -404 -80 -520 -17 -115 -33 -226 -37 -245 -5 -31 -4 -33 9 -20 9
9 23 78 37 180 12 91 44 305 71 475 109 687 139 877 159 1025 23 174 41 246
75 308 29 52 24 55 -10 4z"/>
<path d="M29765 7543 c-58 -92 -161 -309 -199 -419 -76 -224 -111 -474 -92
-657 13 -114 26 -75 19 56 -14 276 60 587 210 882 31 61 68 129 82 153 14 23
24 42 21 42 -2 0 -21 -26 -41 -57z"/>
<path d="M30928 7574 c-5 -4 -8 -88 -8 -185 l0 -179 -75 -147 c-41 -82 -102
-191 -136 -243 -33 -52 -54 -88 -46 -80 30 29 147 226 212 355 l66 130 -3 178
c-2 98 -6 175 -10 171z"/>
<path d="M32082 7497 c-6 -7 -25 -64 -42 -127 -72 -267 -145 -473 -216 -610
-50 -97 -53 -106 -13 -45 75 116 157 331 238 623 27 94 47 172 46 172 -1 0 -7
-6 -13 -13z"/>
<path d="M30621 7225 c-90 -136 -158 -270 -206 -405 -32 -93 -57 -220 -42
-220 10 0 145 207 205 315 33 61 76 146 95 190 32 75 34 85 28 155 l-6 75 -74
-110z"/>
<path d="M27296 7108 c-64 -99 -97 -302 -147 -923 -16 -202 -23 -766 -11 -866
12 -93 42 -185 73 -221 19 -22 19 -22 -1 19 -49 101 -55 155 -54 513 0 322 8
489 40 835 32 354 62 541 96 614 27 54 28 65 4 29z"/>
<path d="M25700 6763 c-60 -94 -81 -171 -124 -453 -34 -220 -52 -401 -41 -426
5 -13 12 23 21 111 18 177 70 518 94 611 11 42 35 105 54 140 40 75 38 83 -4
17z"/>
<path d="M28427 6664 c-4 -7 -18 -115 -32 -240 -51 -482 -55 -673 -16 -826 21
-80 50 -152 75 -183 10 -12 6 2 -9 37 -83 192 -89 394 -29 951 24 232 27 285
11 261z"/>
<path d="M24156 6512 c-45 -71 -57 -127 -55 -242 2 -100 1 -108 -30 -170 -17
-36 -24 -56 -15 -45 9 11 29 46 44 77 25 53 27 65 22 146 -5 94 11 176 48 240
27 45 15 40 -14 -6z"/>
<path d="M29251 6385 c0 -16 -4 -41 -6 -55 l-6 -25 11 25 c6 13 9 38 7 55 l-4
30 -2 -30z"/>
<path d="M26646 6123 c-7 -16 -32 -95 -55 -176 -47 -169 -122 -366 -175 -459
-20 -35 -27 -52 -15 -38 30 36 100 179 142 290 34 91 128 410 121 410 -2 0
-10 -12 -18 -27z"/>
<path d="M29330 6041 c-11 -23 -18 -41 -16 -41 8 0 48 71 43 76 -3 3 -15 -12
-27 -35z"/>
<path d="M30922 6036 c-17 -38 -12 -89 6 -77 9 5 12 24 10 57 l-3 49 -13 -29z"/>
<path d="M20499 5843 c-13 -16 -12 -17 4 -4 16 13 21 21 13 21 -2 0 -10 -8
-17 -17z"/>
<path d="M25118 5792 c-9 -15 -35 -92 -57 -172 -54 -188 -103 -319 -162 -439
-27 -53 -40 -85 -29 -71 60 78 156 316 215 530 21 74 42 143 47 153 15 30 3
29 -14 -1z"/>
<path d="M20423 5728 c-129 -206 -274 -552 -273 -651 1 -21 13 10 35 86 58
197 172 451 270 601 10 14 15 26 12 26 -3 0 -23 -28 -44 -62z"/>
<path d="M17942 5388 c-213 -355 -337 -802 -318 -1144 10 -187 41 -332 99
-474 33 -79 102 -206 118 -216 6 -3 -4 16 -20 43 -190 309 -228 800 -95 1253
56 194 157 428 249 578 14 23 24 42 21 42 -2 0 -27 -37 -54 -82z"/>
<path d="M25541 5319 c-2 -114 89 -380 158 -459 18 -20 17 -16 -5 20 -57 94
-111 260 -142 440 l-9 55 -2 -56z"/>
<path d="M29982 5333 c-31 -45 -68 -124 -86 -182 -31 -104 -18 -296 29 -436
24 -71 81 -185 110 -220 19 -22 16 -15 -9 28 -146 248 -166 593 -45 790 31 51
32 64 1 20z"/>
<path d="M30866 5352 c-3 -5 -14 -55 -26 -113 -23 -111 -73 -274 -93 -298 -9
-12 -9 -13 1 -7 7 4 24 30 37 57 47 91 122 427 81 361z"/>
<path d="M21385 5298 c-7 -18 31 -168 72 -281 24 -67 67 -147 78 -147 3 0 -1
10 -9 23 -26 39 -67 157 -101 292 -20 81 -36 124 -40 113z"/>
<path d="M30583 5195 c-45 -36 -73 -86 -73 -131 0 -43 36 -112 50 -98 5 5 20
52 34 104 44 171 44 168 -11 125z"/>
<path d="M21198 5008 c-23 -37 -85 -187 -107 -263 -29 -97 -41 -204 -31 -277
15 -101 81 -209 129 -208 37 1 155 204 211 364 28 82 29 91 14 99 -69 39 -143
139 -179 242 -22 63 -23 65 -37 43z"/>
<path d="M18958 4999 c-9 -27 67 -289 108 -371 36 -71 47 -68 14 4 -28 59
-100 302 -100 337 0 9 -4 22 -9 30 -7 11 -9 11 -13 0z"/>
<path d="M24055 4793 c65 -194 101 -284 129 -318 9 -11 2 10 -14 47 -16 37
-54 140 -83 230 -48 146 -81 228 -91 228 -2 0 25 -84 59 -187z"/>
<path d="M21617 4671 c-15 -43 -48 -118 -72 -167 -25 -49 -38 -80 -29 -69 43
55 151 299 136 309 -4 2 -20 -31 -35 -73z"/>
<path d="M18743 4653 c-60 -127 -71 -157 -99 -262 -26 -102 -32 -226 -13 -296
26 -99 111 -192 147 -162 49 40 161 248 207 382 l27 80 -28 20 c-78 54 -132
133 -174 253 l-26 73 -41 -88z"/>
<path d="M22835 4633 c15 -144 52 -278 99 -352 14 -22 28 -41 31 -41 3 0 -4
15 -15 33 -41 66 -72 187 -95 380 -10 76 -28 57 -20 -20z"/>
<path d="M19206 4373 c-20 -63 -88 -211 -131 -283 -14 -25 -19 -36 -10 -25 64
78 196 365 168 365 -5 0 -17 -26 -27 -57z"/>
<path d="M20130 4262 c0 -50 96 -277 142 -332 11 -15 7 -2 -11 31 -37 67 -97
220 -106 272 -8 40 -25 61 -25 29z"/>
<path d="M16172 5935 c34 -98 35 -281 4 -568 -14 -131 -26 -273 -26 -317 0
-133 42 -299 90 -360 17 -21 17 -17 -4 30 -63 139 -76 336 -43 615 46 377 39
555 -22 635 -18 23 -18 21 1 -35z"/>
<path d="M14619 5953 c-13 -16 -12 -17 4 -4 9 7 17 15 17 17 0 8 -8 3 -21 -13z"/>
<path d="M14512 5793 c-239 -379 -417 -901 -489 -1433 -22 -168 -26 -693 -5
-830 36 -238 88 -430 161 -599 38 -87 105 -208 136 -246 9 -11 4 0 -10 25
-129 218 -215 479 -262 795 -22 151 -25 630 -5 800 67 562 258 1139 500 1513
8 12 12 22 9 22 -3 0 -18 -21 -35 -47z"/>
<path d="M16606 3907 c-28 -42 -47 -111 -56 -212 -28 -284 -53 -391 -121 -515
-18 -33 -22 -45 -10 -30 33 41 89 161 111 241 11 41 27 147 35 237 15 165 26
225 51 275 17 33 10 36 -10 4z"/>
</g>
</svg>
